<mxfile host="app.diagrams.net" modified="2024-05-29T21:54:00.790Z" agent="Mozilla/5.0 (X11; Linux x86_64) AppleWebKit/537.36 (KHTML, like Gecko) Chrome/125.0.0.0 Safari/537.36" version="24.4.10" etag="y5zXMhr3I2gSncviJCCg" type="github">
  <diagram name="Page-1" id="THnbDru2uxfrAVq40sKY">
    <mxGraphModel>
      <root>
        <mxCell id="0" />
        <mxCell id="1" parent="0" />
      </root>
    </mxGraphModel>
  </diagram>
</mxfile>
